<svg width="17" height="15" viewBox="0 0 17 15" fill="none" xmlns="http://www.w3.org/2000/svg">
<path d="M8.33333 10.8333C9.71667 10.8333 10.8333 9.71667 10.8333 8.33333C10.8333 7.4 10.325 6.58333 9.58333 6.15833L1.49167 1.475L6.1 9.45833C6.51667 10.275 7.35833 10.8333 8.33333 10.8333ZM8.33333 0C6.825 0 5.41667 0.416667 4.19167 1.1L5.94167 2.10833C6.66667 1.825 7.5 1.66667 8.33333 1.66667C12.0167 1.66667 15 4.65 15 8.33333C15 10.175 14.2583 11.8417 13.05 13.0417H13.0417C12.9644 13.1188 12.9031 13.2103 12.8613 13.3111C12.8195 13.412 12.798 13.52 12.798 13.6292C12.798 13.7383 12.8195 13.8464 12.8613 13.9472C12.9031 14.048 12.9644 14.1396 13.0417 14.2167C13.3667 14.5417 13.9 14.5417 14.225 14.225C15 13.4522 15.6146 12.5339 16.0337 11.5228C16.4527 10.5117 16.6678 9.4278 16.6667 8.33333C16.6667 3.75 12.9167 0 8.33333 0ZM0 8.33333C0 10.6333 0.933333 12.7167 2.44167 14.225C2.76667 14.5417 3.29167 14.5417 3.61667 14.2167C3.69392 14.1396 3.75521 14.048 3.79703 13.9472C3.83885 13.8464 3.86037 13.7383 3.86037 13.6292C3.86037 13.52 3.83885 13.412 3.79703 13.3111C3.75521 13.2103 3.69392 13.1188 3.61667 13.0417C2.99691 12.4244 2.50552 11.6906 2.17083 10.8825C1.83615 10.0744 1.6648 9.20801 1.66667 8.33333C1.66667 7.5 1.825 6.66667 2.11667 5.91667L1.10833 4.16667C0.416667 5.41667 0 6.81667 0 8.33333Z" fill="#CA3500"/>
</svg>
